<?xml version="1.0" standalone="no"?>
<!DOCTYPE svg PUBLIC "-//W3C//DTD SVG 20010904//EN"
 "http://www.w3.org/TR/2001/REC-SVG-20010904/DTD/svg10.dtd">
<svg version="1.0" xmlns="http://www.w3.org/2000/svg"
 width="512.000000pt" height="512.000000pt" viewBox="0 0 512.000000 512.000000"
 preserveAspectRatio="xMidYMid meet">

<g transform="translate(0.000000,512.000000) scale(0.100000,-0.100000)"
fill="#000000" stroke="none">
<path d="M3717 4217 c-62 -126 -116 -295 -141 -439 -4 -21 -10 -38 -14 -38 -4
0 -52 9 -107 19 -226 43 -374 54 -645 48 -246 -6 -489 -31 -510 -54 -55 -57
-174 -207 -229 -287 -211 -312 -339 -638 -398 -1016 -25 -161 -25 -539 0 -700
71 -455 250 -856 536 -1202 44 -53 88 -101 98 -106 29 -16 227 -41 405 -52
257 -16 565 7 813 61 372 81 733 248 990 459 98 80 125 115 37 47 -371 -285
-885 -371 -1342 -225 -230 74 -406 182 -580 357 -215 216 -343 461 -401 766
-18 95 -20 134 -16 290 5 159 9 194 36 295 34 132 57 192 107 293 86 171 192
310 307 402 380 304 911 291 1268 -32 l37 -34 64 48 c119 91 209 118 359 111
106 -6 178 -29 262 -85 l52 -34 -55 56 c-65 68 -172 156 -256 212 -58 40 -60
43 -57 80 17 194 77 423 148 562 l25 49 -46 22 c-25 12 -52 33 -61 47 l-17 25
-33 -66 c-69 -137 -137 -365 -158 -533 -4 -29 -8 -53 -9 -53 -1 0 -58 26 -127
58 -68 31 -172 73 -231 92 -83 27 -107 39 -108 53 -1 69 66 296 125 420 l32
68 -39 16 c-21 8 -49 28 -62 44 l-24 28 -35 -72z"/>
<path d="M1397 3418 c-48 -29 -124 -80 -169 -113 -101 -73 -316 -285 -385
-379 -118 -161 -201 -331 -248 -511 -14 -55 -29 -103 -33 -106 -4 -4 -128 -45
-276 -92 -235 -75 -286 -95 -286 -117 0 -22 51 -42 291 -119 l274 -87 21 -86
c85 -348 304 -661 639 -912 65 -50 199 -136 255 -166 l24 -13 -19 29 c-102
154 -214 373 -273 534 -167 460 -187 984 -56 1465 55 201 172 468 275 630 58
91 61 95 56 95 -2 0 -43 -24 -90 -52z"/>
<path d="M3213 2200 c-34 -14 -43 -42 -43 -137 0 -97 12 -126 55 -137 29 -7
79 15 89 39 8 21 8 179 0 200 -6 15 -54 46 -71 44 -4 0 -18 -4 -30 -9z"/>
<path d="M4680 2203 c-44 -16 -50 -33 -50 -138 0 -85 3 -105 18 -117 41 -37
100 -28 121 19 6 13 11 59 11 103 0 68 -3 82 -22 104 -25 26 -54 37 -78 29z"/>
<path d="M3740 2060 c-63 -63 31 -171 172 -200 103 -20 239 24 294 96 29 38
30 63 3 98 -29 37 -75 35 -124 -4 -46 -37 -71 -44 -135 -38 -34 4 -60 14 -88
36 -47 37 -92 42 -122 12z"/>
<path d="M4659 1043 c-13 -16 -12 -17 4 -4 16 13 21 21 13 21 -2 0 -10 -8 -17
-17z"/>
</g>
</svg>
